<?xml version="1.0" standalone="no"?>
<!DOCTYPE svg PUBLIC "-//W3C//DTD SVG 20010904//EN"
 "http://www.w3.org/TR/2001/REC-SVG-20010904/DTD/svg10.dtd">
<svg version="1.0" xmlns="http://www.w3.org/2000/svg"
 width="500.000000pt" height="500.000000pt" viewBox="0 0 500.000000 500.000000"
 preserveAspectRatio="xMidYMid meet">

<g transform="translate(0.000000,500.000000) scale(0.100000,-0.100000)"
fill="#000000" stroke="none">
<path d="M0 4571 c0 -327 3 -432 12 -437 17 -11 68 -12 68 -2 0 4 -14 6 -30 4
-17 -2 -32 0 -35 3 -4 7 47 14 98 14 25 -1 32 8 28 31 -1 5 5 4 13 -3 9 -7 22
-11 31 -8 8 4 17 1 21 -5 4 -6 3 -8 -4 -4 -6 3 -13 2 -17 -4 -3 -5 3 -10 14
-10 12 0 21 6 21 13 0 8 4 7 10 -3 8 -13 10 -12 10 3 0 12 4 16 13 11 9 -6 9
-4 -1 8 -13 17 -13 39 2 49 13 10 100 -1 108 -14 5 -8 9 -6 14 6 3 9 1 24 -5
31 -9 10 -9 16 -1 21 6 4 9 3 8 -2 -2 -4 2 -8 7 -8 6 0 9 4 7 8 -1 5 2 6 8 2
6 -3 8 -11 5 -16 -4 -5 1 -9 10 -9 9 0 14 4 10 9 -3 5 0 13 7 17 7 4 10 4 6
-1 -4 -4 -2 -15 5 -23 10 -13 9 -14 -2 -7 -9 5 -12 4 -7 -3 3 -6 2 -13 -4 -17
-5 -3 -10 -12 -10 -18 0 -8 3 -8 8 -2 8 13 22 13 41 1 10 -6 12 -5 7 3 -4 6 0
14 9 17 13 6 14 8 3 15 -10 7 -10 9 3 9 9 0 19 -3 23 -7 10 -11 35 -12 41 -3
3 5 -3 7 -13 5 -22 -4 -68 50 -52 60 6 4 9 1 8 -7 -2 -7 7 -14 20 -16 12 -2
22 -8 22 -14 0 -6 3 -8 6 -5 4 4 2 13 -4 20 -9 10 -8 14 3 14 8 0 15 -9 15
-19 0 -11 5 -16 10 -13 6 4 17 2 25 -5 10 -8 15 -8 21 1 4 7 3 9 -3 6 -6 -4
-18 2 -27 11 -15 17 -14 20 4 40 24 25 32 28 24 8 -3 -8 -12 -17 -20 -20 -18
-7 -9 -26 12 -26 8 0 14 9 14 21 0 19 2 20 17 8 11 -9 14 -10 9 -2 -5 9 -2 11
8 7 10 -4 16 -1 16 9 0 8 6 17 13 20 8 3 14 -1 14 -9 0 -7 -5 -10 -11 -7 -6 3
-7 2 -3 -3 12 -13 61 -13 69 0 4 6 5 20 2 31 -4 15 -3 16 4 6 7 -9 12 -10 16
-2 4 6 13 8 19 4 17 -11 41 -10 49 2 5 6 8 5 8 -3 0 -7 5 -10 10 -7 8 5 7 12
-2 23 -8 10 -8 13 -1 9 6 -4 13 -4 16 0 2 5 2 3 1 -4 -2 -6 4 -17 12 -23 13
-12 18 -7 15 13 -1 5 3 6 8 3 5 -4 11 -1 13 6 3 8 7 6 11 -5 4 -12 1 -17 -11
-17 -14 0 -14 -2 -3 -9 9 -6 -9 -8 -48 -6 -33 2 -61 -1 -61 -5 0 -5 8 -7 18
-5 9 1 22 -2 29 -7 7 -5 14 -5 17 1 4 5 17 8 31 5 16 -3 27 2 34 14 7 14 21
18 65 17 30 0 58 -4 62 -8 11 -10 34 -9 34 3 0 5 -6 7 -14 4 -10 -4 -14 0 -12
12 4 24 37 27 43 3 6 -23 33 -26 33 -3 0 8 -4 13 -9 10 -11 -7 -33 18 -24 27
3 4 12 2 20 -4 10 -9 13 -8 13 2 0 11 2 11 9 0 11 -17 39 -23 47 -10 3 5 11 9
17 9 8 0 8 -3 -2 -9 -9 -6 -5 -8 14 -8 19 0 23 2 14 8 -11 7 -10 9 4 9 12 0
16 5 11 13 -6 10 -4 10 7 0 15 -15 43 -18 34 -4 -3 5 -1 12 4 16 6 3 8 -6 5
-22 -3 -22 -2 -24 6 -11 6 10 18 14 30 11 11 -3 17 -10 13 -15 -3 -6 0 -8 8
-6 8 3 13 11 11 17 -1 7 2 10 7 7 5 -3 8 -14 6 -24 -2 -9 -4 -21 -4 -26 -1 -5
-7 -3 -15 3 -11 10 -14 9 -12 -4 1 -8 8 -21 15 -28 10 -9 12 -9 9 2 -2 7 7 15
20 17 13 2 21 0 17 -5 -3 -5 -1 -12 4 -16 6 -3 8 3 6 13 -2 10 1 25 7 33 8 11
9 10 4 -3 -3 -11 0 -18 8 -18 14 0 16 16 4 36 -4 6 -1 11 6 11 9 0 12 -11 10
-33 -1 -19 2 -37 8 -40 7 -4 8 -2 4 4 -4 7 -4 18 1 25 4 6 8 22 9 35 0 12 4
25 7 28 8 8 3 -49 -6 -63 -4 -6 -2 -15 4 -19 8 -5 9 -3 4 6 -5 8 -3 11 6 8 8
-3 13 -11 11 -17 -1 -7 2 -10 8 -6 6 3 8 10 5 15 -3 4 2 10 10 13 8 4 12 15
10 27 -2 11 0 18 5 15 6 -4 7 -40 0 -40 -1 0 -3 -7 -5 -16 -1 -9 3 -16 11 -16
10 0 11 4 3 14 -14 16 3 17 19 1 18 -18 40 -18 37 1 -4 26 4 31 30 19 18 -8
22 -15 15 -23 -7 -8 -5 -12 5 -12 8 0 12 4 9 9 -3 4 2 11 11 14 13 5 13 9 3
23 -12 14 -11 15 5 2 13 -10 14 -17 7 -27 -9 -10 -7 -11 9 -7 12 3 18 9 15 14
-3 5 3 6 13 2 15 -6 16 -4 6 8 -10 13 -10 16 2 16 7 0 13 -5 12 -11 -1 -5 12
-10 28 -10 19 0 29 5 27 13 -1 7 2 10 7 6 6 -3 7 -13 4 -23 -6 -15 -5 -15 10
-3 9 7 14 18 10 24 -3 6 -1 7 6 3 9 -6 8 -14 -4 -33 -13 -19 -14 -28 -5 -37 8
-8 9 -6 4 8 -6 15 -4 17 6 11 8 -5 11 -4 7 2 -4 6 0 16 8 23 11 9 12 16 5 25
-7 8 -5 12 5 12 7 0 13 -5 12 -11 -1 -6 4 -10 11 -8 8 1 11 -2 7 -8 -3 -5 -2
-10 4 -10 5 0 8 -8 6 -17 -3 -23 4 -35 16 -27 5 3 6 11 2 17 -4 7 -9 20 -10
31 -3 15 0 16 10 7 17 -13 31 -2 17 13 -6 8 -1 12 18 13 17 1 21 -1 12 -5 -17
-8 -25 -32 -11 -32 5 0 11 3 14 8 2 4 2 2 1 -5 -4 -17 22 -37 31 -23 5 8 12 7
23 -2 15 -12 16 -11 3 5 -10 13 -17 14 -26 7 -7 -6 -15 -7 -18 -3 -3 5 6 13
19 20 13 6 22 8 20 5 -2 -4 6 -14 18 -23 21 -16 22 -16 23 5 0 11 -1 15 -4 8
-5 -14 -23 -6 -23 10 0 6 3 8 7 5 3 -4 12 -2 20 5 11 9 13 8 11 -2 -2 -7 2
-14 9 -17 7 -3 11 3 8 15 -2 11 2 19 10 19 8 0 11 -5 7 -11 -12 -19 -12 -45 0
-52 7 -4 8 -3 4 4 -4 7 -2 20 4 29 10 16 11 16 6 1 -2 -9 3 -22 12 -30 15 -11
15 -11 5 2 -9 12 -7 17 13 27 13 6 22 7 18 2 -3 -5 2 -9 11 -9 13 0 14 -3 3
-22 -22 -40 -11 -486 13 -514 9 -11 7 -14 -8 -14 -10 0 -24 5 -30 11 -20 20
-24 -23 -8 -84 18 -70 36 -106 74 -149 16 -18 38 -63 49 -100 12 -37 31 -86
42 -109 20 -37 21 -51 14 -138 -3 -52 -15 -123 -24 -158 -18 -60 -18 -63 1
-98 67 -124 244 -234 360 -223 27 3 49 1 49 -3 0 -5 18 -9 40 -9 29 0 40 4 40
15 0 10 10 15 29 15 17 0 32 4 36 10 3 5 13 6 21 3 9 -3 20 0 25 8 7 12 9 12
9 0 0 -11 4 -10 13 4 9 11 19 15 27 10 9 -5 11 -4 6 3 -4 7 6 25 24 42 16 16
30 38 30 49 0 11 5 23 12 27 7 5 8 3 3 -7 -7 -12 -6 -12 7 -1 14 11 17 10 21
-5 3 -10 5 -5 5 12 0 17 -3 38 -6 48 -8 18 -55 47 -78 47 -7 0 -15 4 -18 9
-10 16 24 364 40 416 29 91 84 207 109 227 47 37 67 84 73 173 7 113 -3 125
-64 83 -24 -18 -46 -29 -49 -26 -10 10 7 37 27 44 13 4 17 9 9 13 -8 5 -8 43
1 144 6 75 14 137 17 138 3 0 14 2 23 4 23 4 35 -15 17 -26 -10 -6 -10 -9 -2
-9 7 0 17 10 24 21 8 16 8 20 -1 14 -9 -6 -9 -2 0 16 12 21 13 21 25 5 13 -17
13 -17 18 1 3 11 4 8 4 -8 -1 -14 -7 -26 -14 -26 -6 0 -9 5 -6 10 3 6 1 7 -5
3 -7 -4 -12 -11 -12 -15 0 -11 65 -9 76 2 4 4 12 7 18 7 6 0 4 -5 -4 -10 -12
-7 -10 -9 7 -8 11 1 20 7 19 13 -2 5 -1 6 2 2 2 -4 11 -2 20 5 15 11 15 11 4
-3 -20 -26 -24 -59 -6 -52 8 3 13 12 10 19 -8 20 10 26 24 9 8 -9 17 -12 24
-7 6 5 25 9 41 9 17 0 22 -1 13 -4 -17 -4 -23 -16 -19 -36 1 -5 -3 -6 -8 -2
-6 3 -8 12 -4 20 3 8 -1 15 -8 15 -7 0 -9 -3 -6 -6 3 -4 2 -16 -4 -27 -6 -10
-7 -17 -2 -14 5 3 20 0 34 -6 31 -16 48 -15 59 3 9 13 10 13 10 -1 0 -8 -6
-21 -12 -28 -11 -10 -10 -12 2 -9 8 2 14 -2 15 -9 0 -6 4 -15 8 -20 5 -4 7 -1
5 7 -2 8 2 14 7 15 6 0 15 3 20 6 16 9 40 4 38 -7 -1 -6 4 -11 12 -11 8 0 12
4 9 8 -5 8 13 22 32 25 6 1 11 -4 11 -12 0 -9 -4 -11 -12 -4 -8 7 -12 5 -12
-4 0 -10 44 -15 55 -6 1 1 8 3 15 4 6 1 11 8 9 15 -1 7 2 10 8 6 6 -3 7 -11 4
-17 -5 -7 -2 -9 7 -6 10 4 15 -1 16 -15 1 -11 7 -25 13 -31 8 -8 10 -7 5 5 -4
11 1 15 20 15 15 0 25 -6 25 -14 0 -11 -3 -12 -13 -4 -10 9 -13 6 -13 -13 0
-17 3 -21 11 -15 7 6 16 5 23 -2 9 -9 11 -7 8 8 -3 17 2 20 39 20 31 0 42 -4
40 -15 -1 -8 -9 -15 -18 -17 -11 -1 -15 2 -10 9 3 7 3 9 -2 5 -4 -4 -13 -3
-20 2 -8 7 -12 5 -12 -5 0 -8 4 -12 9 -9 4 3 8 -9 8 -26 0 -19 4 -29 10 -25 6
4 7 11 4 17 -4 7 -2 8 5 4 6 -4 9 -12 6 -17 -4 -5 1 -9 10 -9 8 0 18 -7 21
-15 4 -9 16 -13 36 -11 23 3 32 -1 38 -18 9 -21 10 -17 10 22 0 4 -9 7 -19 7
-11 0 -23 4 -28 9 -4 5 -3 7 3 3 6 -3 22 0 36 7 25 13 25 13 23 -28 -1 -22 0
-35 2 -28 4 10 9 9 24 -4 23 -21 25 -12 3 11 -9 9 -14 18 -11 21 3 3 13 -4 24
-15 14 -15 22 -17 33 -10 12 9 12 10 -2 5 -12 -3 -18 0 -18 10 0 11 4 12 19 4
13 -7 18 -17 14 -32 -3 -14 -1 -19 4 -12 4 6 18 13 30 16 16 4 20 2 16 -9 -4
-11 1 -14 23 -11 19 2 37 -4 53 -20 19 -17 26 -19 33 -10 5 9 8 10 8 1 0 -6 8
-10 18 -8 12 2 17 -4 19 -23 l1 -27 -14 25 c-8 15 -13 19 -14 10 0 -12 -2 -13
-9 -1 -6 9 -11 10 -15 2 -4 -6 -12 -9 -17 -5 -5 3 -6 10 -3 16 4 6 1 9 -7 6
-8 -3 -14 -10 -14 -15 0 -6 -3 -14 -6 -18 -4 -3 -6 2 -6 12 0 37 -4 43 -27 41
-14 -1 -22 -6 -20 -10 3 -4 12 -4 21 -1 10 4 14 2 9 -5 -3 -6 -2 -14 4 -17 8
-5 8 -11 0 -20 -9 -10 -7 -13 7 -10 10 1 25 -3 33 -9 13 -10 13 -9 1 7 -8 10
-9 17 -3 17 6 0 16 -8 22 -17 10 -16 11 -16 6 -1 -3 12 1 16 15 15 11 -1 18
-6 15 -13 -2 -6 5 -11 17 -10 13 1 21 -4 20 -11 -2 -7 0 -12 5 -12 24 4 41 -3
36 -14 -3 -8 2 -20 11 -27 9 -7 15 -9 13 -3 -2 6 2 11 7 11 6 0 9 -5 7 -11 -2
-6 7 -3 19 8 22 20 22 20 15 0 -6 -16 -5 -18 5 -7 10 9 10 15 1 24 -10 10 -15
10 -22 -2 -9 -13 -10 -13 -11 0 -1 8 -1 20 0 25 1 6 -8 -1 -20 -15 -13 -15
-19 -18 -16 -8 5 15 -16 43 -32 43 -3 0 -5 7 -3 15 3 13 2 13 -7 0 -7 -9 -11
-10 -11 -3 0 20 20 26 26 8 6 -13 9 -14 16 -3 7 10 8 8 6 -6 -2 -12 4 -20 15
-21 9 -2 17 1 17 6 0 5 8 1 19 -10 12 -12 30 -17 54 -16 20 2 34 -1 32 -6 -3
-4 -12 -6 -20 -2 -10 3 -13 1 -10 -9 6 -16 32 -17 54 -3 10 6 12 4 6 -5 -9
-15 -13 -70 -5 -75 3 -2 7 8 8 23 3 34 19 51 28 28 5 -14 9 -15 15 -4 7 10 9
10 9 -2 0 -13 1 -13 11 0 8 12 9 11 7 -5 -2 -11 2 -19 9 -18 7 2 10 -4 7 -12
-4 -8 -1 -15 4 -15 6 0 13 8 15 18 3 9 4 5 4 -10 -1 -15 -4 -25 -8 -22 -4 2
-12 -3 -18 -10 -9 -10 -9 -16 -1 -21 6 -4 9 -2 8 3 -2 6 2 10 7 10 6 0 9 -5 7
-11 -2 -7 0 -8 5 -4 4 5 9 13 9 18 4 30 6 32 13 14 5 -11 5 -25 1 -30 -5 -6 2
-15 16 -22 23 -10 24 -10 13 4 -7 8 -15 26 -16 39 -3 17 1 22 15 21 12 0 18
-10 19 -26 l2 -26 -10 24 c-5 13 -12 21 -16 17 -13 -13 33 -60 61 -62 15 0 31
-7 36 -14 5 -9 9 -9 11 -1 6 17 65 19 61 3 -1 -7 5 -12 15 -10 10 2 17 -2 15
-10 -1 -7 9 -17 24 -22 14 -6 22 -14 19 -20 -6 -9 7 -14 27 -11 4 0 5 -5 2
-12 -3 -8 2 -14 11 -14 19 0 21 76 3 96 -10 11 -10 13 0 7 9 -6 12 136 12 693
l0 701 -2500 0 -2500 0 0 -429z m1380 -137 c0 -8 -19 -13 -24 -6 -3 5 1 9 9 9
8 0 15 -2 15 -3z m869 -21 c-31 -39 -37 -43 -42 -28 -3 7 1 19 9 25 8 7 14 9
14 4 0 -4 5 -3 12 4 18 18 22 14 7 -5z m-1178 -17 c-6 -7 -9 -15 -6 -18 3 -2
-1 -5 -9 -5 -15 0 -16 14 -3 35 5 7 13 10 18 6 6 -4 6 -10 0 -18z m123 16 c3
-5 -1 -9 -9 -9 -8 0 -12 4 -9 9 3 4 7 8 9 8 2 0 6 -4 9 -8z m1650 -27 c18 -23
21 -35 16 -64 -7 -39 -3 -61 10 -61 5 0 25 -16 45 -37 29 -30 35 -43 35 -81
l0 -45 -96 6 c-96 6 -145 -3 -172 -30 -7 -7 -23 -14 -35 -14 -45 -3 -108 2
-128 9 -30 12 -162 -7 -172 -24 -13 -22 -27 -16 -25 11 1 14 6 25 10 25 4 0 8
5 8 10 0 6 11 21 25 33 28 24 59 100 44 105 -5 2 -9 10 -9 18 0 8 -5 14 -11
14 -7 0 -8 12 -4 33 8 35 27 76 35 75 3 0 25 9 50 20 57 27 88 30 233 28 117
-2 118 -2 141 -31z m-1421 11 c3 -8 -2 -20 -11 -27 -14 -11 -15 -11 -5 0 6 7
9 20 6 27 -3 8 -3 14 0 14 3 0 7 -6 10 -14z m113 -11 c1 -8 -1 -17 -5 -19 -4
-3 -7 6 -7 19 0 25 8 25 12 0z m-569 -7 c-3 -8 -6 -5 -6 6 -1 11 2 17 5 13 3
-3 4 -12 1 -19z m43 -1 c0 -7 -4 -6 -10 3 -8 12 -10 12 -10 1 0 -8 -3 -12 -6
-8 -9 9 6 28 17 22 5 -4 9 -12 9 -18z m17 1 c-3 -8 -6 -5 -6 6 -1 11 2 17 5
13 3 -3 4 -12 1 -19z m579 -18 c8 0 12 -5 9 -10 -10 -17 -35 9 -34 34 2 20 2
20 6 -1 2 -13 11 -23 19 -23z m33 37 c-2 -2 -11 -8 -20 -15 -12 -9 -16 -9 -16
1 0 7 9 14 20 14 11 1 18 1 16 0z m36 -5 c-3 -3 0 -11 6 -19 17 -20 5 -16 -14
5 -15 16 -15 19 -2 19 8 0 13 -3 10 -5z m374 5 c-2 -2 -11 -8 -20 -15 -12 -9
-16 -9 -16 1 0 7 9 14 20 14 11 1 18 1 16 0z m141 -2 c0 -2 -6 -8 -13 -14 -10
-8 -14 -7 -14 2 0 8 6 14 14 14 7 0 13 -1 13 -2z m-1709 -122 c13 -16 12 -17
-3 -4 -10 7 -18 15 -18 17 0 8 8 3 21 -13z m2716 -5 c-3 -8 -6 -5 -6 6 -1 11
2 17 5 13 3 -3 4 -12 1 -19z m-2725 -27 c2 -7 -5 -15 -15 -16 -14 -3 -16 -1
-7 10 7 8 8 20 4 27 -5 9 -4 10 4 3 6 -5 12 -16 14 -24z m3028 -60 c0 -10 -7
-18 -15 -18 -8 0 -15 4 -15 8 0 4 -3 14 -6 22 -4 12 0 14 15 10 12 -3 21 -13
21 -22z m80 -14 c0 -17 2 -18 17 -6 11 10 14 10 9 2 -4 -7 -3 -13 1 -13 5 0
15 6 22 13 11 10 11 8 2 -11 -8 -15 -16 -20 -24 -15 -10 8 -32 10 -39 3 -10
-8 -39 -6 -45 2 -4 7 1 9 14 6 20 -5 25 5 11 27 -4 6 2 11 13 11 12 0 19 -7
19 -19z m370 -166 c-5 -10 -6 -21 -3 -25 3 -3 4 -6 1 -6 -3 0 -13 9 -24 21
-10 11 -14 20 -9 19 22 -5 36 1 29 12 -4 7 -3 8 4 4 8 -5 9 -13 2 -25z m-1114
10 c-3 -5 4 -12 17 -15 21 -7 21 -7 2 -16 -24 -10 -65 -13 -65 -3 0 10 32 43
42 43 5 0 7 -4 4 -9z m1225 -28 c13 -16 12 -17 -3 -4 -17 13 -22 21 -14 21 2
0 10 -8 17 -17z m-1593 -40 c2 -8 -6 -13 -22 -13 -25 0 -33 10 -19 24 10 10
36 3 41 -11z m1743 0 c13 -16 12 -17 -3 -4 -17 13 -22 21 -14 21 2 0 10 -8 17
-17z m-1554 -20 c4 -10 9 -20 13 -23 3 -3 14 -16 23 -30 9 -13 17 -19 17 -12
0 7 5 10 10 7 6 -3 10 4 10 16 0 21 1 22 13 5 25 -34 167 -29 167 6 0 13 69
40 86 34 19 -7 19 -90 -1 -106 -8 -7 -15 -19 -15 -27 0 -8 -10 -24 -23 -36
-49 -48 -77 -96 -77 -131 0 -32 -3 -36 -26 -36 -14 0 -32 -6 -39 -14 -8 -7
-25 -12 -39 -11 -16 2 -26 -2 -26 -9 0 -9 -17 -12 -52 -12 -35 1 -52 5 -51 13
3 13 -50 12 -124 -2 -30 -5 -43 -4 -43 4 0 6 -11 11 -25 11 -23 0 -25 4 -25
46 0 37 -3 45 -15 40 -9 -3 -15 0 -15 10 0 9 -6 14 -12 11 -7 -2 -18 3 -25 12
-14 18 -17 45 -5 37 5 -3 9 1 9 9 0 8 -8 17 -18 20 -18 6 -30 47 -19 65 5 9
18 9 50 0 35 -9 50 -8 90 6 51 18 86 13 76 -11 -3 -8 -3 -15 -1 -15 8 0 55
107 55 124 0 23 49 21 57 -1z m443 -123 c0 -13 -1 -13 -10 0 -5 8 -10 22 -10
30 0 13 1 13 10 0 5 -8 10 -22 10 -30z m60 -30 c-6 -11 -16 -20 -22 -20 -6 0
-3 9 7 20 10 11 20 20 22 20 2 0 -1 -9 -7 -20z m1618 -110 c-2 -25 3 -32 16
-21 10 8 16 9 21 1 3 -6 11 -7 17 -4 7 4 8 2 4 -5 -4 -6 -12 -9 -17 -6 -5 4
-9 0 -9 -7 0 -9 -3 -10 -8 -2 -4 6 -15 10 -25 8 -10 -1 -14 2 -11 8 4 6 -1 17
-11 24 -16 12 -16 13 3 11 11 0 20 -4 20 -7z m-24 -25 c-4 -8 -10 -12 -15 -9
-11 6 -2 24 11 24 5 0 7 -7 4 -15z m226 -71 c0 -8 -19 -13 -24 -6 -3 5 1 9 9
9 8 0 15 -2 15 -3z m-2376 -19 c-6 -16 -44 -21 -44 -7 0 14 12 22 31 22 12 0
16 -5 13 -15z m136 -60 c0 -10 -76 -36 -105 -37 -47 -1 -117 14 -108 23 10 10
213 24 213 14z m44 -10 c-27 -20 -51 -20 -34 0 7 8 22 15 33 15 20 0 20 0 1
-15z"/>
<path d="M2534 3782 c-27 -17 -35 -51 -23 -92 13 -44 46 -81 57 -64 7 12 87
26 136 24 37 -1 56 16 56 50 0 22 -5 28 -22 29 -13 0 -56 3 -97 5 -55 4 -77 1
-88 -10 -8 -7 -19 -14 -24 -14 -11 0 -4 16 19 43 17 19 5 42 -14 29z"/>
<path d="M2721 3773 c17 -22 31 -33 43 -33 5 0 -1 11 -14 25 -27 28 -50 34
-29 8z"/>
<path d="M1887 4356 c-4 -9 -2 -18 4 -21 5 -4 6 -11 3 -17 -4 -6 -2 -8 4 -4 6
3 9 16 7 28 -6 28 -11 32 -18 14z"/>
<path d="M776 4351 c-8 -13 3 -38 18 -44 9 -4 11 2 8 19 -5 27 -18 39 -26 25z"/>
<path d="M1645 4349 c-4 -6 -5 -12 -2 -15 2 -3 7 2 10 11 7 17 1 20 -8 4z"/>
<path d="M1750 4345 c-7 -8 -17 -12 -24 -8 -6 4 -5 -1 3 -10 14 -18 26 -24 17
-8 -8 12 19 33 29 23 5 -4 5 -1 1 6 -9 15 -11 15 -26 -3z"/>
<path d="M1791 4342 c-8 -16 -7 -23 7 -33 15 -12 15 -12 5 1 -8 10 -9 21 -3
30 9 14 11 13 14 -9 0 -5 4 -12 8 -16 3 -4 5 0 4 9 -4 30 -23 40 -35 18z"/>
<path d="M1955 4350 c-3 -5 -5 -10 -3 -11 33 -8 38 -7 27 7 -14 17 -16 17 -24
4z"/>
<path d="M395 4228 c3 -11 7 -23 11 -27 4 -3 4 2 1 11 -3 9 -1 18 6 21 6 2 4
6 -5 10 -13 4 -16 1 -13 -15z"/>
<path d="M297 4217 c-4 -10 2 -13 18 -13 13 1 27 5 30 8 4 4 -1 5 -12 4 -10
-2 -21 1 -24 6 -3 5 -9 3 -12 -5z"/>
<path d="M3376 4217 c3 -10 9 -15 12 -12 3 3 0 11 -7 18 -10 9 -11 8 -5 -6z"/>
<path d="M255 4209 c-4 -5 -4 -13 -1 -16 3 -4 6 0 6 8 0 11 2 11 10 -1 6 -9
10 -10 10 -3 0 17 -17 25 -25 12z"/>
<path d="M144 4145 c-4 -8 -11 -12 -18 -8 -19 12 -33 11 -33 -1 0 -7 12 -12
26 -11 14 1 29 -3 32 -8 3 -5 9 -1 12 8 4 9 3 13 -3 10 -6 -3 -10 -2 -10 4 0
5 6 12 13 14 9 4 9 6 -1 6 -7 1 -15 -6 -18 -14z"/>
<path d="M3443 4145 c0 -8 4 -12 9 -9 5 3 6 10 3 15 -9 13 -12 11 -12 -6z"/>
<path d="M3723 4108 c1 -7 -4 -12 -12 -10 -12 3 -12 0 -1 -12 15 -19 21 -20
18 -3 -2 6 3 11 11 9 12 -3 12 0 1 12 -15 19 -21 20 -17 4z"/>
<path d="M4325 3779 c-3 -4 2 -6 10 -5 21 3 28 13 10 13 -9 0 -18 -4 -20 -8z"/>
<path d="M4469 3774 c7 -14 7 -24 0 -31 -8 -8 -7 -13 0 -18 6 -3 10 -2 9 3 -2
6 2 9 7 9 6 -1 9 -6 7 -10 -1 -5 2 -6 8 -2 6 3 7 11 4 17 -5 8 -1 9 10 5 10
-4 15 -3 11 3 -4 6 -13 9 -20 8 -8 -2 -21 6 -30 17 -16 20 -16 20 -6 -1z"/>
<path d="M4560 3738 c0 -10 5 -18 10 -18 6 0 10 -5 10 -11 0 -5 -6 -7 -12 -3
-7 4 -4 -2 6 -14 20 -23 28 -28 24 -14 -2 4 2 8 7 9 6 0 9 -3 7 -9 -1 -5 2 -6
8 -3 13 8 -11 50 -29 50 -6 0 -16 7 -21 15 -8 13 -10 12 -10 -2z m31 -41 c-10
-9 -11 -8 -5 6 3 10 9 15 12 12 3 -3 0 -11 -7 -18z"/>
<path d="M4764 3565 c0 -23 1 -23 18 -8 10 9 18 18 18 21 0 3 -3 2 -7 -1 -3
-4 -11 -3 -18 3 -8 6 -11 2 -11 -15z"/>
<path d="M4854 3578 c-3 -5 -10 -6 -15 -3 -5 3 -6 -2 -3 -12 5 -17 5 -17 -8
-1 -13 15 -15 15 -28 -5 -17 -26 -22 -49 -9 -41 5 3 7 9 4 14 -3 5 -1 11 5 15
9 6 14 -8 11 -28 -1 -5 3 -6 8 -2 6 3 8 13 5 23 -5 14 -3 14 10 -2 8 -10 13
-23 9 -29 -3 -6 -1 -7 5 -3 8 5 9 13 2 25 -6 13 -5 24 6 37 13 18 14 17 8 -7
-3 -16 -1 -30 6 -34 8 -5 7 -12 -5 -25 -11 -12 -13 -20 -5 -25 6 -3 9 -3 8 2
-2 4 2 9 7 10 6 1 9 -7 9 -18 -1 -11 1 -17 5 -14 3 4 6 11 6 16 0 5 3 9 8 9 4
0 9 0 12 0 3 0 1 -9 -4 -19 -8 -14 -7 -22 7 -32 15 -12 15 -12 5 1 -8 10 -9
21 -3 30 6 8 10 12 11 8 2 -11 6 -26 9 -35 1 -5 2 -12 0 -18 -1 -5 4 -4 11 2
9 9 16 9 25 2 9 -7 12 -5 9 8 -1 10 2 24 7 30 12 15 2 47 -12 38 -6 -3 -13 1
-16 10 -6 13 -8 14 -15 3 -7 -10 -9 -9 -9 5 0 9 -6 17 -14 17 -11 0 -29 32
-28 50 1 9 -39 7 -44 -2z m51 -49 c5 -20 10 -27 15 -19 5 8 9 7 14 -5 3 -9 9
-14 14 -12 4 3 16 -1 26 -9 15 -10 16 -16 8 -27 -7 -8 -9 -16 -6 -20 3 -3 -2
-4 -13 -2 -10 1 -17 7 -16 13 2 11 -45 58 -55 55 -4 -2 -7 0 -7 5 0 4 -4 13
-9 20 -10 16 0 45 13 38 5 -4 13 -20 16 -37z"/>
<path d="M4880 3546 c0 -8 4 -17 9 -20 5 -4 7 3 4 14 -6 23 -13 26 -13 6z"/>
<path d="M4939 3478 c24 -28 52 -29 30 -2 -6 8 -14 12 -17 9 -3 -3 -12 1 -21
7 -9 7 -5 0 8 -14z"/>
<path d="M4731 3567 c-8 -10 -7 -14 2 -14 8 0 14 6 14 14 0 7 -1 13 -2 13 -2
0 -8 -6 -14 -13z"/>
<path d="M2032 2986 c13 -14 28 -12 28 5 0 5 -9 9 -20 9 -17 0 -19 -2 -8 -14z"/>
<path d="M1800 2528 c0 -7 -19 -8 -53 -4 l-54 7 -21 -88 c-29 -116 -28 -133 1
-133 13 0 27 4 33 9 15 15 166 31 207 22 20 -5 37 -6 37 -3 0 3 -5 35 -10 71
-6 36 -13 80 -15 96 -5 29 -7 30 -65 32 -36 1 -60 -3 -60 -9z"/>
<path d="M2116 2533 c-28 -4 -28 -6 -22 -51 19 -140 28 -173 45 -167 40 12
258 6 311 -9 30 -9 98 -23 150 -31 52 -7 155 -30 228 -49 74 -20 135 -36 137
-36 1 0 6 25 10 55 3 30 10 57 15 60 8 5 125 -31 145 -45 6 -3 29 -12 52 -19
23 -6 59 -27 79 -47 21 -19 57 -43 81 -54 24 -10 43 -24 43 -30 0 -24 -116 32
-125 60 -3 11 -29 25 -63 35 -31 10 -61 21 -67 26 -5 5 -16 9 -25 9 -8 0 -28
7 -44 15 -36 19 -52 19 -60 -1 -11 -30 -6 -44 22 -56 89 -37 138 -60 152 -74
21 -20 77 -55 132 -82 45 -22 47 -25 42 -55 l-6 -32 46 50 c58 63 98 129 90
149 -3 9 -10 16 -14 16 -4 0 -21 13 -36 29 -16 16 -52 39 -81 51 -28 12 -54
28 -57 36 -3 8 -16 14 -28 14 -13 0 -43 11 -68 24 -53 28 -166 67 -288 101
-48 13 -107 30 -132 38 -25 9 -97 28 -160 42 -98 24 -141 28 -295 30 -99 2
-193 1 -209 -2z"/>
<path d="M1955 2290 c4 -6 11 -8 16 -5 14 9 11 15 -7 15 -8 0 -12 -5 -9 -10z"/>
<path d="M2070 2283 c-52 -8 -110 -26 -110 -34 0 -13 17 -11 50 6 16 8 49 16
74 17 25 2 46 6 46 11 0 7 -15 7 -60 0z"/>
<path d="M3015 2068 c0 -137 -45 -236 -121 -269 -24 -10 -44 -25 -44 -33 0
-24 31 -27 65 -6 35 22 46 17 59 -27 11 -33 90 -67 159 -68 55 0 57 0 36 -16
l-22 -16 29 -10 c27 -9 30 -7 61 41 18 28 33 58 33 67 0 22 -38 69 -56 69 -8
0 -14 7 -14 16 0 8 -4 13 -9 10 -4 -3 -6 -28 -3 -55 4 -43 2 -50 -18 -61 -45
-24 -144 10 -173 60 -17 28 -17 31 -1 62 26 52 35 60 50 47 7 -6 18 -7 25 -3
8 5 5 12 -12 24 -22 17 -22 20 -9 61 22 66 43 82 99 76 25 -2 54 -8 64 -12 14
-6 17 -2 17 18 0 22 -6 27 -37 34 -21 4 -59 7 -85 6 -46 -1 -48 0 -56 30 -5
18 -15 33 -23 35 -12 2 -14 -13 -14 -80z"/>
<path d="M1770 2081 c-8 -6 -35 -11 -60 -11 -55 0 -68 -8 -64 -40 3 -29 -6
-64 -35 -137 -31 -78 -15 -64 26 22 19 41 36 75 38 75 1 0 1 -13 -1 -30 -5
-38 8 -45 86 -42 36 2 78 -2 93 -7 16 -6 59 -14 98 -17 55 -6 69 -4 69 7 0 21
-27 170 -32 174 -10 10 -204 15 -218 6z"/>
<path d="M2188 2073 c-16 -2 -28 -7 -28 -10 0 -9 20 -133 26 -160 3 -16 12
-23 27 -23 12 0 54 -7 92 -16 39 -9 115 -21 170 -29 55 -7 113 -18 128 -24 16
-6 39 -11 51 -11 12 0 53 -9 90 -21 l67 -21 21 27 c11 15 40 35 64 45 27 12
49 30 58 49 22 41 20 48 -11 54 -16 3 -59 14 -98 26 -99 31 -219 57 -295 65
-36 4 -98 16 -139 27 -78 20 -178 30 -223 22z"/>
<path d="M3146 2013 c-3 -4 -6 -15 -6 -25 0 -14 -35 -97 -81 -190 -13 -26 -11
-58 4 -58 6 0 22 -3 35 -6 20 -6 26 2 58 72 20 44 40 90 44 104 8 25 8 25 9 2
2 -43 21 -11 21 34 0 24 -2 44 -4 44 -2 0 -19 7 -39 15 -19 8 -37 11 -41 8z"/>
<path d="M1130 1838 c-29 -81 -64 -164 -107 -256 -59 -127 -80 -257 -50 -308
55 -95 260 -201 453 -235 67 -12 86 -27 64 -54 -7 -8 -9 -23 -5 -36 7 -22 8
-22 21 -5 12 17 15 17 51 -11 55 -44 78 -54 90 -42 7 7 24 6 54 -4 24 -8 69
-20 99 -27 30 -7 82 -21 115 -31 64 -19 150 -39 278 -65 l78 -16 -5 -36 c-9
-55 -30 -310 -30 -362 0 -128 7 -191 20 -186 8 3 14 1 14 -4 0 -6 -4 -10 -9
-10 -13 0 -23 -48 -15 -72 5 -16 8 -18 15 -7 6 9 9 0 9 -28 l0 -43 331 0 331
0 -6 182 c-5 175 -12 267 -22 297 -3 9 -8 10 -17 3 -13 -11 -105 -21 -241 -26
-61 -2 -81 -7 -88 -20 -5 -9 -6 -21 -2 -27 4 -8 -1 -9 -16 -4 -16 5 -29 0 -50
-20 l-28 -27 0 34 c0 33 1 34 34 30 29 -4 33 -2 27 14 -4 12 -3 15 5 10 15 -9
34 2 27 14 -3 6 -15 6 -29 0 -16 -6 -28 -5 -36 3 -10 9 -11 9 -5 -2 5 -9 -1
-7 -19 4 -31 20 -33 25 -7 18 10 -3 22 1 26 8 5 7 4 10 -2 6 -6 -4 -13 -1 -16
6 -3 9 5 12 30 9 21 -3 30 -7 23 -12 -22 -14 5 -15 168 -10 127 5 164 9 185
23 l26 17 -15 47 c-9 27 -19 64 -23 83 -4 23 -9 31 -14 23 -5 -7 -5 -17 -2
-23 3 -6 -1 -7 -9 -4 -21 8 -21 9 14 46 31 32 47 69 36 87 -3 5 0 12 6 14 10
4 10 6 1 6 -7 1 -13 11 -13 22 0 22 -2 22 -112 16 -71 -4 -119 -2 -131 5 -11
6 -53 14 -93 19 -40 5 -91 16 -115 24 -64 23 -89 20 -89 -10 0 -14 -5 -25 -10
-25 -6 0 -3 -11 6 -25 11 -16 12 -25 5 -25 -11 0 -41 58 -41 80 0 5 7 10 15
10 8 0 15 5 15 10 0 6 -4 10 -10 10 -5 0 14 23 42 50 28 28 55 50 59 50 17 0
30 40 20 58 -10 16 -10 16 -11 0 0 -10 -7 -18 -15 -18 -8 0 -15 -4 -15 -10 0
-16 -41 -33 -52 -22 -11 11 35 58 65 68 9 3 15 10 12 15 -4 5 1 19 9 31 22 31
20 64 -4 86 -20 18 -19 18 20 36 31 13 40 23 40 42 0 16 6 24 18 24 18 0 175
-44 277 -78 203 -67 238 -75 250 -58 7 8 15 13 18 10 3 -4 9 5 12 19 8 29 39
62 53 53 5 -3 7 -19 4 -36 -3 -20 0 -30 8 -30 17 0 5 -136 -17 -187 -9 -21
-19 -56 -23 -78 -10 -59 -39 -173 -57 -225 -34 -102 -42 -172 -37 -335 3 -105
0 -199 -9 -272 l-13 -113 25 0 c13 0 21 3 18 7 -4 3 0 17 8 30 9 13 11 23 5
23 -7 0 -8 6 -2 18 8 15 24 78 27 107 3 33 18 91 25 100 4 6 7 28 6 50 -1 22
2 45 6 51 4 6 11 60 14 120 4 60 10 114 14 119 17 24 40 104 57 202 3 18 11
38 19 44 12 10 13 8 8 -7 -5 -15 -4 -16 4 -4 6 8 8 18 5 23 -3 5 1 13 8 18 12
7 12 9 0 9 -9 0 -1 11 17 26 18 15 32 35 32 45 0 9 18 35 39 57 22 22 37 43
33 47 -4 4 4 4 18 0 14 -4 26 -11 28 -15 1 -4 11 -23 21 -43 24 -48 12 -179
-25 -265 -7 -17 -13 -35 -13 -38 0 -3 -7 -16 -15 -30 -9 -13 -14 -24 -10 -24
4 0 2 -6 -3 -12 -5 -7 -11 -33 -12 -57 -1 -24 -8 -62 -16 -85 -8 -22 -15 -50
-15 -61 0 -11 -7 -33 -15 -49 -8 -15 -15 -37 -15 -48 0 -11 -5 -29 -12 -41 -7
-12 -13 -31 -15 -41 -2 -11 -10 -27 -17 -35 -8 -9 -17 -31 -21 -50 -4 -19 -16
-48 -26 -65 -10 -17 -19 -40 -19 -51 0 -11 -7 -33 -15 -48 l-14 -28 60 3 60 3
60 180 c73 221 103 332 123 455 24 157 26 178 35 365 5 99 14 208 21 243 7 34
11 65 8 67 -3 3 -72 9 -154 14 -156 10 -185 15 -179 34 2 7 6 50 9 97 4 68 3
79 -6 55 -18 -51 -63 -110 -85 -113 -12 -2 -66 15 -120 37 -55 23 -104 41
-110 41 -6 0 -46 11 -89 25 -101 33 -238 64 -334 75 -41 5 -102 15 -136 22
l-61 14 5 -45 c2 -26 5 -47 6 -48 0 0 61 -3 134 -5 132 -5 160 -12 149 -41 -8
-22 -76 -49 -116 -48 -157 7 -222 5 -230 -7 -5 -8 -10 -13 -12 -12 -2 1 -15
-3 -29 -9 -21 -8 -22 -10 -5 -10 11 -1 33 -8 49 -16 33 -18 96 -20 96 -4 0 7
11 9 30 6 16 -4 42 -2 57 3 15 6 49 14 76 19 44 8 47 7 47 -13 0 -17 -16 -31
-67 -60 -38 -21 -84 -40 -103 -43 -19 -4 -52 -17 -72 -30 -40 -24 -58 -29 -58
-14 0 17 -85 54 -121 52 -21 0 -42 5 -49 14 -17 20 -38 8 -60 -36 -22 -43 -37
-50 -100 -47 -30 1 -49 7 -57 19 -12 16 -53 26 -133 31 -28 1 -34 -2 -32 -15
4 -26 -27 -21 -33 6 -6 21 -11 22 -103 22 -53 -1 -103 3 -109 8 -8 6 -13 6
-13 -1 0 -16 -76 -7 -105 12 -15 10 -29 15 -32 12 -3 -2 -23 12 -45 32 -22 20
-51 47 -64 59 -13 12 -26 34 -28 49 -3 16 -14 40 -23 54 -23 32 -19 64 12 80
13 7 22 16 20 20 -3 4 4 10 15 13 11 3 20 1 20 -4 0 -5 6 -9 13 -9 6 0 18 -13
25 -30 8 -16 17 -29 20 -28 11 2 44 -13 87 -41 22 -14 50 -27 63 -28 18 -3 22
1 22 22 0 14 7 40 16 57 19 37 126 179 149 198 8 7 15 18 15 26 0 8 -10 4 -26
-11 -15 -14 -33 -25 -40 -25 -8 0 -11 -6 -8 -15 18 -45 -141 28 -250 114 -35
28 -68 51 -74 51 -5 0 -20 -28 -32 -62z m1150 -682 c0 -13 -20 -26 -41 -26
-14 0 -11 28 4 33 23 10 37 7 37 -7z m248 -316 c53 -6 119 -12 146 -15 28 -3
52 -8 55 -11 10 -11 -242 7 -299 21 -70 17 -34 19 98 5z m-171 -87 c-3 -10 -5
-4 -5 12 0 17 2 24 5 18 2 -7 2 -21 0 -30z m39 -59 c-6 -16 -42 -19 -51 -4 -3
6 1 7 9 4 10 -4 20 3 28 22 10 22 14 24 16 10 2 -9 1 -24 -2 -32z m364 36 c0
-15 -48 -43 -60 -35 -7 4 2 14 22 25 40 23 38 22 38 10z m-80 -31 c0 -5 -18
-9 -40 -9 -22 0 -40 4 -40 9 0 5 18 9 40 9 22 0 40 -3 40 -9z m-257 -24 c-22
-17 -30 -11 -13 10 7 8 17 12 22 9 5 -3 1 -12 -9 -19z m41 -40 c-6 -16 -54
-21 -54 -7 0 15 12 22 36 22 17 0 22 -4 18 -15z m249 -132 c-24 -2 -62 -2 -85
0 -24 2 -5 4 42 4 47 0 66 -2 43 -4z m34 -69 c-3 -3 -12 -4 -19 -1 -8 3 -5 6
6 6 11 1 17 -2 13 -5z m-68 -18 c-2 -2 -22 -6 -44 -10 -29 -5 -36 -4 -25 3 13
10 79 16 69 7z m38 -2 c-3 -3 -12 -4 -19 -1 -8 3 -5 6 6 6 11 1 17 -2 13 -5z
m-407 -59 c0 -8 -4 -15 -10 -15 -5 0 -7 7 -4 15 4 8 8 15 10 15 2 0 4 -7 4
-15z m255 -54 c-4 -13 -15 -21 -28 -21 -21 0 -21 0 3 24 29 27 35 26 25 -3z"/>
<path d="M3023 1848 c-18 -22 -23 -52 -13 -68 9 -13 12 -12 25 4 8 11 15 28
15 38 0 10 0 21 1 25 1 13 -18 14 -28 1z"/>
<path d="M3157 1753 c-17 -33 -14 -40 11 -24 8 4 12 19 10 32 -3 23 -4 23 -21
-8z"/>
<path d="M1619 1733 c-18 -22 -17 -159 2 -198 18 -39 108 -82 208 -100 134
-25 142 -24 200 20 56 43 58 51 40 133 l-10 49 -92 6 c-51 4 -117 13 -147 21
-117 31 -136 36 -164 41 -22 5 -27 10 -23 25 6 24 3 25 -14 3z"/>
<path d="M2931 1741 c-11 -7 -9 -11 8 -20 21 -12 27 -6 13 16 -5 7 -13 9 -21
4z"/>
<path d="M2100 1689 c0 -5 5 -7 10 -4 6 3 10 8 10 11 0 2 -4 4 -10 4 -5 0 -10
-5 -10 -11z"/>
<path d="M3000 1658 c0 -14 39 -38 60 -38 17 0 11 27 -7 33 -10 2 -26 8 -35
12 -12 5 -18 3 -18 -7z"/>
<path d="M2120 1630 c0 -5 5 -10 10 -10 6 0 10 5 10 10 0 6 -4 10 -10 10 -5 0
-10 -4 -10 -10z"/>
<path d="M2100 1594 c-12 -4 -15 -14 -12 -40 3 -26 8 -34 19 -30 8 3 22 6 31
7 10 0 5 5 -10 11 -33 11 -36 28 -8 35 11 3 17 9 14 14 -5 9 -8 10 -34 3z"/>
<path d="M2964 920 c-5 -5 -22 -10 -39 -12 -24 -2 -30 -8 -32 -30 -1 -15 4
-29 13 -32 8 -3 14 -2 14 3 0 5 10 12 23 15 12 3 32 14 45 24 21 16 21 18 3
29 -10 6 -22 8 -27 3z"/>
<path d="M4976 119 c2 -4 -4 -8 -13 -8 -24 0 -45 -5 -62 -15 -10 -7 -12 -5 -7
5 6 10 4 10 -6 -1 -7 -8 -29 -17 -48 -18 -19 -2 -38 -9 -41 -14 -4 -6 -9 -5
-12 3 -4 9 -6 10 -6 2 -1 -7 -8 -10 -18 -6 -12 5 -14 3 -8 -8 8 -12 6 -12 -8
0 -14 11 -18 11 -23 -4 -5 -13 -9 -14 -15 -3 -6 10 -9 8 -9 -7 0 -17 -2 -17
-10 -5 -5 8 -10 10 -10 4 0 -7 -9 -14 -20 -17 -11 -3 -20 -2 -20 3 0 12 -52 3
-61 -12 -7 -10 -9 -10 -9 2 0 10 -3 11 -8 4 -4 -6 -15 -10 -25 -8 -9 1 -15 -1
-12 -6 3 -4 111 -8 240 -9 l236 -2 -2 64 c-1 45 -6 64 -15 64 -7 0 -11 -4 -8
-8z"/>
<path d="M4486 8 c3 -5 10 -6 15 -3 13 9 11 12 -6 12 -8 0 -12 -4 -9 -9z"/>
</g>
</svg>
